<svg xmlns="http://www.w3.org/2000/svg" width="512" height="512" viewBox="0 0 512 512" data-svgdocument=""
    id="_EAwL8POIbjyNw8LKCl_0v" class="fl-svgdocument" x="0" y="0" xmlns:xlink="http://www.w3.org/1999/xlink"
    style="overflow: hidden;">
    <defs id="_eh0dfhm8n_2"
        transform="matrix(1.0597143173217773, 0, 0, 1.0597143173217773, -18.155385971069336, -15.809906005859375)">
    </defs>
    <rect id="_eh0dfhm8n_3" x="-0.013" y="0" width="176.769" height="176.769" stroke="none" fill="none"
        transform="matrix(-0.004581529647111893, -1.7314059734344482, 2.9124796390533447, -0.007706806529313326, -1.5500685572624207, 426.0335998535156)">
    </rect>
    <g id="_eh0dfhm8n_4" transform="matrix(1.051819086074829, 0, 0, 0.626706063747406, -2, 118.6348876953125)"
        fill="#ffffff">
        <path id="_eh0dfhm8n_5" d="M318.3,13.9h6.3c0-0.1-0.1-0.3-0.1-0.4L318.3,13.9z" fill="#ffffff"
            transform="matrix(1, 0, 0, 1, 0, 0)"></path>
        <path id="_eh0dfhm8n_6" d="M312.2,18.3h2c-0.1-0.1-0.3-0.2-0.4-0.3C313.3,18.1,312.8,18.2,312.2,18.3z"
            fill="#ffffff" transform="matrix(1, 0, 0, 1, 0, 0)"></path>
        <path id="_eh0dfhm8n_7" d="M324.5,13.5c-0.5-1.4-3.1-2.7,0.1-4.1h13.9c3.5-0.7,0-1.5,0-2.2c3.5,0,7,0,7-0.4c2.3-1-1.5-1.6-8.2-1.8
			C322.3,9.1,284.1,10.6,324.5,13.5z" fill="#ffffff" transform="matrix(1, 0, 0, 1, 0, 0)"></path>
        <path id="_eh0dfhm8n_8" d="M296.8,16.5h18.3c1.9-0.9,4.5-1.7,2.6-2.6C310.7,14.2,303.7,15.1,296.8,16.5z"
            fill="#ffffff" transform="matrix(1, 0, 0, 1, 0, 0)"></path>
        <path id="_eh0dfhm8n_9" d="M384.9,55c-0.2,0.2-0.5,0-2.5-2.4L384.9,55c0.2-0.1,0.3-0.5,1.5,0.5c-8.9-8.3-19.2-18-29-27.7
			c-1.5-1-3-1.9-4.5-2.8c24.2,23.9,48.3,48,69.4,66.3C408.4,77.5,398.3,68.4,384.9,55z" fill="#ffffff"
            transform="matrix(1, 0, 0, 1, 0, 0)"></path>
        <path id="_eh0dfhm8n_10" d="M349.4,24.9l-2.4-2.4C348.9,24.9,349.2,25,349.4,24.9z" fill="#ffffff"
            transform="matrix(1, 0, 0, 1, 0, 0)"></path>
        <path id="_eh0dfhm8n_11" d="M304.1,492.5c-21,0.3-39.5,1.6-58.1,2.9l52.3-1.2l24.6-0.6l11.6-0.3l15.4-0.4l5.7-6l2.6-2.8l1.3-1.4l0.9-1
			l-10.7,10.7L304.1,492.5z" fill="#ffffff" transform="matrix(1, 0, 0, 1, 0, 0)"></path>
        <path id="_eh0dfhm8n_12" d="M145,497l3.1,3.2l16.2,0.1h9.4c5.8,0,11.3-0.1,16.7-0.3c10.8-0.3,20.9-0.8,30.8-1.5l-31.2,0.5l-15.5,0.2
			l-7.7,0.1l-12.6,0.1l-5.9,0.3L145,497z" fill="#ffffff" transform="matrix(1, 0, 0, 1, 0, 0)"></path>
        <path id="_eh0dfhm8n_13" d="M182.1,497.9c23.8,0,44-1.3,63.9-2.6C223.6,495.9,201.7,496.7,182.1,497.9z"
            fill="#ffffff" transform="matrix(1, 0, 0, 1, 0, 0)"></path>
        <path id="_eh0dfhm8n_14" d="M461.5,229.4c-1.1-15.7-1.5-25.2-1.7-30.6c-0.5-2.4-1.2-5.6-2-9.8v2.8c0.7,16.2,1.3,32.6,1.8,49.2
			c0.5,6.8,1,13.3,1.6,18.7C461.4,249.5,461.4,239.4,461.5,229.4z" fill="#ffffff" transform="matrix(1, 0, 0, 1, 0, 0)">
        </path>
        <path id="_eh0dfhm8n_15" d="M459.8,198.8C464.2,219.2,459.3,177.8,459.8,198.8z" fill="#ffffff"
            transform="matrix(1, 0, 0, 1, 0, 0)"></path>
        <path id="_eh0dfhm8n_16" d="M483.1,300.1c0,0.8,0,1.6,0,2.4l0.3,7L483.1,300.1z" fill="#ffffff"
            transform="matrix(1, 0, 0, 1, 0, 0)"></path>
        <path id="_eh0dfhm8n_17" d="M371.3,446.2c9.6-9.8,19.2-19.8,28.5-29.6c-9.7,10-19.5,20.1-28.8,29.8c-4.6,4.9-9.2,9.6-13.5,14.3l-6.4,6.8
			l-3,3.3l-2.2,2.5c0.5-0.5,0.9-0.9,1.4-1.3l1.6-1.4c1.3-1.2,2.6-2.3,3.8-3.6C358.5,459.7,364.7,452.8,371.3,446.2z"
            fill="#ffffff" transform="matrix(1, 0, 0, 1, 0, 0)"></path>
        <path id="_eh0dfhm8n_18" d="M479.6,191.5c0.9,37.9,2.1,75,3.5,111l0.2,46.8l-15.9,16.2l-14.6,15c-9.7,10-19.2,19.8-28.5,29.6
			c-18.7,19.5-36.5,38.6-53.4,57.2c-2.8,3.2-5.9,6.5-9.1,10l-2.4,2.6l-3.1,3.3l-7.1,7.5l-48.9,1.1c-15.9,0.4-32.3,0.7-48.4,1.1
			s-32,1-46.7,1.8c-7.4,0.4-14.5,0.8-21.2,1.3c-3.4,0.2-6.6,0.5-9.8,0.8l-4.7,0.4l-2.3,0.2l-1.1,0.1h-0.3h-0.4l-0.9,0.1l9.3,0.2
			l8.5,0.1c-4.1,0.3-8.1,0.5-11.9,0.8l-2.9,0.2l-1.4,0.1h-0.4h-0.6l-1.2,0.1l-9.6,0.5h-5.8l-72.9-71.2l-33.8-33.2l-16.9-16.7
			L2,355.9l-0.2-91.3c0-13.9-1.1-24.4-1.1-38.3l-0.2-41.8c-0.1-0.1-0.2,0.1-0.3,0.5L0,149.1l12.1-12.2l6.8-7L31.6,117l25.3-26
			c16.9-17.4,33.9-35,51.3-53.1c5.1-5.2,10.2-10.4,15.3-15.5L145.9,0l49.9,0.1c10.4,0,10.4,1.5,17.4,1.9c27.9,1.9,48.7,3.3,80.1,4.1
			v1.1c4.8-0.1,9.1-0.1,12.6,0c-15,4.2-53.1,5.7-12.7,8.5l0,0l-6.2,0.4h-0.7l0,0c-7,0.3-14,1.2-20.9,2.6h18.3
			c-1.2,0.5-1.9,1-1.3,1.6c-0.5,0.1-1,0.2-1.6,0.3h-5c-0.7,0.2-1.4,0.5-2,0.9c-16,1.6-41.2,2.4-36.3,4c3.7,0.8,15.4,0.1,28.7-0.4
			c0.8,0.1,1.7,0.3,2.7,0.4c-17.4,0.4,0,2.6-10.4,3c-13.9,0-27.8,0.4-41.8,0.4h-31.3l-27.6,0.1L125,62.5
			C113.6,74.2,102.1,86,90.1,98.5l-5.1,5.3c-9.4,9.7-18.6,19.1-27.8,28.4L43.4,146l-7,6.9l-5.9,5.8c0.6-1,1.4-2.1,2.2-3.2l-5.1,5
			l-0.1,11.1v13.6c0,9.1,0.2,18.1,0.4,27.2l1.8,66.9l0.7,34l0.3,17.2l0.1,8.2l0.1,5.3l2.7,2.6l3.3,3.3l8.9,8.8
			c19.7,19.4,39.2,38.5,58.7,57.5l29.5,28.6l15,14.4l7.5,7.2l4.1,3.8l4.5-0.2l-4.5,0.3l-3.1-2.7l-0.8-0.7l-1.5-1.4l-2.9-2.7
			l-11.6-11c-7.8-7.4-15.6-14.9-23.4-22.5c-7.9-7.9-15.7-15.8-23.4-23.4c7.8,8,15.6,15.7,23.4,23.4l23,23.1l11.4,11.4l5,5l3.2,3.1
			l10.7-0.3c4.9-0.2,9.7-0.4,14.3-0.5c9.3-0.4,18.2-1.1,26.3-1.9c3.6,0.3,3.6,0.7,7,0.7c24.4,0,48.8,0.4,69.6-1.1
			c0-0.4,10.5-0.4,7-1.1l24.9-0.3l12.9-0.2h3l1.2,0l2.3-0.1l1.9-2.2l0.5-0.5l1.3-1.4l2.6-2.8c6.2-6.6,12.1-13.5,17.9-20.5l49.7-52.5
			l25.4-26.8l13-13.6l6.4-6.7c0.2-0.3,0.4-0.6,0.5-0.9c-0.1-0.4-0.2-0.7-0.3-1l-0.3-9.6l-0.5-20.3l-1-42.5
			c-0.4-20-0.4-43.1-0.4-63.4c1.2,29.8,2.3,60.5,3.2,91.7c-0.1,9.4-0.1,18.6-0.1,27.6l0.1,13.3v3.1l0,0.5l0.1,1
			c-0.2,0.3-0.4,0.6-0.6,0.9l-0.2,0.3c-0.1,0.2-0.3,0.3-0.4,0.5l-0.6,0.7l-2.5,2.7c-3.3,3.6-6.4,7.2-9.4,10.6l-11,12.5l15.9-16.7
			l7.9-8.3l1-1l0.2-0.3l0.4-0.5l0.7-0.9l-0.2-1.4v-0.3v-0.2v-0.5l-0.1-3.4l-0.4-13.5l-0.8-26.7c0.2-17.9,0.4-36.2,0.4-54.1l0.1,1.1
			l1.2,42.5c-0.1,11.4-0.2,22.6-0.1,33.4c0.1,10,0.3,24.5,0.6,23.4l-0.7,1l-0.4,0.5l-0.2,0.3v0.1l0,0l-0.1,0.1l-0.4,0.5
			c-1.8,2.1-3.6,4.1-5.4,6.1l-11,12.5l12.3-12.9l3-3.2l1.5-1.6l0.8-0.8l0.2-0.3l1.6-2l-0.2-1.9l-0.1-1l-0.1-3.3l-0.4-13.1l-1.1-37.9
			l0.2-23.9c0.1,0.8,0.2,1.7,0.3,2.5c0.4,7,4.7,26.5,5.9,16c0-21.3-0.3-46-0.7-68.1l-0.5-30.3l-0.2-12l-0.1-4
			c-0.9-0.8-1.8-1.7-2.6-2.6c0-0.4,1.3,0.4,3.6,2.2c0.2,1.2,0.3,2.7,0.5,4.5l0.5,11.9l0.8,25.8c0.5,16.6,0.9,30.1,1,28.8l0.4-15.4
			c0.3,4.9,0.6,9.7,1,14.1c0.4,10.4,0,24.4,0.7,31.4c1.1,12.2,1.5,25.2,1.8,38.7l0.4,20.5l0.3,10.4l0.1,2.6l0.1,2.4l0.3,4.2l0.2,2.9
			l-3.2,3.8l-1.7,2l-2.1,2.5l-9.1,10.4l-19.1,22c0.5,0.5-7.1,7.7-4.1,5.7c-13.9,13.9-30,30-34.4,37.5l-1,1c-1,1-2.3,2.5-3.6,4.1
			c-9.5,9.3-17.6,17.8-25.2,26c-3.8,4.1-7.5,8.2-11.1,12.3l-5.7,6.4l-6.9,7.6l-17.9,0.8c-10.2,0.2-20.6,0.3-31.2,0.3
			c7,0,17.4,0.4,24.4,0l6.9-0.3l18.1-0.4l6.7-7l5.6-6l10.5-11.1l20.6-22c1.3-1.6,3.4-4.2,5.4-6.5l3.9-3.8c0.2-0.4,0.4-0.9,0.7-1.3
			c16.3-17.8,35.2-37.3,48.9-52.5c4.7-5,9.4-10,14.3-15l7.3-7.5l7.2-7.3v-19.1L479,309l0.3-38.6c0.6,19.6,1.3,38.9,2,57.9
			c-0.6-23.8-1.3-46.2-2-68v-10v-20.9l-0.4,19.4l-1.4-38.5l-1.1-50.9L463,146.5l-14.4-14c-9.6-9.3-19.1-18.7-28.7-28.1
			c-19.1-18.8-38-37.7-56.7-56.7c1.3,0.7,2.7,1.5,4.3,2.4c24.3,23.9,48.3,48,69.4,66.3c-13.9-13.9-24-23.1-37.5-36.4
			c0.2-0.1,0.3-0.5,1.5,0.5c-8.9-8.3-19.2-18-29-27.7c3.8,2.4,8,5.3,12.1,8.1c5.5,4.4,12.8,11.8,20.5,18.9
			c13.3,12.9,26.1,25.6,38.9,38.2l19.1,18.9l20.2,19.8l0.2,13.3l0.2,12c-0.1,39.6-0.3,79.2-0.2,118.1
			C482.1,261.5,481,226,479.6,191.5z M219,14.2l-11,0.5l1.6,0.3C212.8,15,215.9,14.7,219,14.2z M135.8,29.6l3.1-3l3.4-3.3l9.4-9.3
			h11.1l8.9-0.1l16.8-0.3l34.8-0.7c0.2-0.1,0.3-0.2,0.3-0.3c-10.1-0.1-21.2-0.1-32.7,0.1l-39.5,0.6L135.8,29.6z M62.8,91.7l0.5-0.3
			c-0.1,0-0.1,0-0.2-0.1L62.8,91.7z M129.4,464c-21-18.4-45.6-43-70.8-67.1c-7.4-7.4-15.8-13.7-25.7-23.6c-3.8-3.6-7.1-6.8-10.3-9.7
			l-12-11.3l-0.6-20.2l-0.4,5.2v0.7v1l-0.1,2l-0.2,4v-6.7V334c0-2.8-0.1-5.4-0.1-8c-0.1-5.1-0.4-9.9-0.6-14.7
			c-0.4-9.6-0.8-19.1-0.4-31.3c-0.4,0-1.1-3.5-1.1-7c-0.4-17.4,0.4-34.8-0.4-48.8c-0.4-17.4-0.4-34.8-1.1-48.7
			c0-1.8-0.3-4.4-0.6-7.4l-0.5-8.2c-0.2-2.9-0.3-6-0.4-9L27,127.5l-1,0.5c-2.5,2.4-4.9,4.9-7.4,7.4l-10.6,11l-4.2,4.4L4.1,164
			l0.1,3.4l0.1,2.2l0.1,3.9l0.5,16c0.3,10.7,0.6,21.4,0.7,31.3c0.3,22.1,0.8,43.6,1.3,64.7l0.8,31.4l0.4,15.5l0.1,3.9l0.1,2l0.1,3
			l0.2,11.9l12.1,11.6l8.2,7.7c7.6,7.1,15.6,14,23.2,21.1c23.2,21.1,50,48.5,66.6,61.4C121.5,457.2,126.4,462.1,129.4,464z
			 M164.3,471.8l-4.5,0.3l-2.8-2.5l-1.5-1.3l-2.4-2.2l-9.7-9.1c-6.5-6.1-12.9-12.3-19.3-18.5c-12.8-12.3-25.2-24.6-36.5-36.2
			c-6.9-6.9-18.6-18.3-30.6-29.4c-6-5.6-12-11.1-17.5-16.1l-4-3.6l-1.9-1.7l-0.9-0.8l-0.7-0.6c-1.9-1.6-3.8-3-5.4-4.4
			c-0.3-2.5-0.8-4.9-1.5-7.2c-0.3-0.6-0.6-1.1-0.9-1c-0.1,0-0.3,0.2-0.5,0.4c-0.2,0.3-0.4,0.7-0.5,1.1c0.6,2.5,1.1,5,1.4,7.6
			c1.8,1.4,3.8,3,5.8,4.7c0.9,0.8,2.2,1.9,3.4,3l3.8,3.4c5.3,4.7,11,10.2,17.2,16c12.3,11.8,26,25.3,39.6,38.8s26.9,26.8,38.5,38.2
			c5.8,5.7,11.1,10.9,15.9,15.4l3.4,3.2l1.5,1.4l1.1,1c1.5,1.3,2.8,2.4,3.9,3.3c3.3-0.3,5.4-0.8,6.3-1.3S165.6,472.6,164.3,471.8
			L164.3,471.8z M410,393.3c-9.9,10.7-19.5,21.1-31.2,32.8L410,393.3z M305.5,480.1c6.5-0.4,13.2-0.7,19.9-1l18.6-0.8l3.6-3.9
			l3.9-4.1l8.6-9.1l17.3-18.1c11.5-12,22.9-24,33.9-35.8c10.2-10.9,21.3-21.8,32.1-32.7c5.4-5.4,10.8-10.8,16.1-16.2
			c2.6-2.7,5.2-5.3,7.7-8l1.5-1.6l1.3-1.4l2.4-2.7c-0.1-1.7-0.2-3.4-0.4-4.9l-0.1-1.2l-0.1-0.6l-0.1-0.8l-0.3-3.4h-1.1l0.4,3.5
			l-0.1,2l-0.1,1.7l-0.2,3l-2.7,2.4l-1.3,1.1l-0.6,0.5l-1,0.9l-7.8,7.2l1.2-1.3l-2.1,2.2c-5,4.7-10,9.7-15.6,15.7l-7.7,8.4
			c-15.2,15.6-30.6,31.5-45.5,47.1c-7.5,7.8-14.8,15.6-21.9,23.2L355,462.9l-5.1,5.6l-1.3,1.4l-0.6,0.7l-0.5,0.5l-1.8,2.1l-2.7,3
			l-6.2,0.5l-1.7,0.1l-2,0.1l-4,0.3l-15.8,1c-10.5,0.7-21,1.4-32.3,1.9C288,480.1,298.5,480.5,305.5,480.1z"
            fill="#ffffff" transform="matrix(1, 0, 0, 1, 0, 0)"></path>
        <path id="_eh0dfhm8n_19" d="M478.8,255.8l-1.3-45.5c-0.5-11.8-1-23.5-1.5-35.2l-0.5-15.3l-5.9-5.5l-7.1-6.9L448,133.3
			c-9.7-9.5-19.6-19.2-29.5-29c-19.8-19.6-39.7-39.4-59.1-58.2c-2-0.5-3,0.2-2.2,2.5c19,19.7,38.4,39,57.8,58.2l29.2,28.8l26.5,26.2
			v12.1l-0.1,15.8l0.1,1.5c2.2,27.9,1.5,73.1,3.3,108c0.5,8.1,1,16.3,1.4,24.4l1.1,23l-8.5,9.3l-9.5,10.2
			c-6.3,6.8-12.6,13.7-18.8,20.6l19.8-19.9l19.1-19.4l-0.2-45.5C478.5,286.6,478.6,271.3,478.8,255.8z" fill="#ffffff"
            transform="matrix(1, 0, 0, 1, 0, 0)"></path>
        <path id="_eh0dfhm8n_20" d="M221.2,498.7l41.2-0.7c14.8-0.3,28.9-0.7,42.7-1.1l20.4-0.6l10.1-0.3l15.6-0.4l6.6-7l3.3-3.4l1.3-1.4l1-1.1
			l8.3-8.9l-20.8,21.1l-58.3,0.2C266.5,495.4,244.5,497.3,221.2,498.7z" fill="#ffffff"
            transform="matrix(1, 0, 0, 1, 0, 0)"></path>
        <path id="_eh0dfhm8n_21" d="M390.9,453l-19.2,20.8c26.7-27,53.1-54,79.2-80.9l18-18.9l9-9.5l5.5-5.8l6.5-6.7l-0.2-11.9l-0.2-9l-0.4-16.7
			l-0.8-33.3c-0.6-22.2-1.2-44.4-1.9-66.6c-0.2-7-0.4-14-0.5-20.9l-0.2,77.8c0,12.9,0,25.7,0,38.5c0,13.6,0.1,27.1,0.1,40.5
			l-17.8,18l-15.8,16.1c-10.4,10.7-20.6,21.2-30.7,31.7c-20,20.9-39.2,41.4-57.2,61.2l-3.8,4.2c32.7-33,64.8-65.9,96.8-98.7
			C435.1,406.2,413,429.6,390.9,453z" fill="#ffffff" transform="matrix(1, 0, 0, 1, 0, 0)"></path>
        <path id="_eh0dfhm8n_22" d="M479.2,270.4v-10l-0.4-11.5l-0.1,7L479.2,270.4z" fill="#ffffff"
            transform="matrix(1, 0, 0, 1, 0, 0)"></path>
        <path id="_eh0dfhm8n_23"
            d="M457.1,356.1l-1,0.9l-23.3,24.1c-10.5,11.5-21.6,23.4-33.1,35.5C420.8,395,441.6,373.6,457.1,356.1z"
            fill="#ffffff" transform="matrix(1, 0, 0, 1, 0, 0)"></path>
        <path id="_eh0dfhm8n_24" d="M382.6,418.1l-9.9,9.9l-4,5l7-6.9L382.6,418.1z" fill="#ffffff"
            transform="matrix(1, 0, 0, 1, 0, 0)"></path>
        <path id="_eh0dfhm8n_25" d="M211.4,469l68.6-1.7l33.1-0.9l16.3-0.4l4-0.1l2,0h0.5h0.3l2.5-0.2l1.1-1.4l0.5-0.6l0.3-0.3l0.9-0.9l7.4-7.8
			l14.5-15.2l5.3-6.5c-6.1,6-12.2,12.1-18.2,18.1l-9,9.1l-2,2.1l-0.5,0.5l-1,1.1l-1.9,0.1h-0.5h-1.9l-3.9,0.1
			c-5.2,0.1-10.3,0.3-15.4,0.4c-10.2,0.4-20.2,0.8-29.9,1.4c-7,0.4-17.4,1.5-24.4,1.5c-16.5,0.2-32.6,0.6-48.4,1l-23.7,0.8l-23,0.8
			l45-1L211.4,469z" fill="#ffffff" transform="matrix(1, 0, 0, 1, 0, 0)"></path>
    </g>
    <path text="C" text-anchor="middle" font-size="100" letter-spacing="0" side="left" offset="0.5" dx="0" dy="0"
        space="preserve" href="" font-family="Fjalla One" font-scale="contain"
        transform="matrix(2.767000436782837, 0, 0, 2.0127062797546387, 136.60897827148438, 359.33526611328125)" x="0"
        y="0" fill="#ffffff" data-fl-textpath="" id="_1fv3arTdUyE1S3m771ZDY"
        d="M 2.2484375000000014 0.73L 2.2484375000000014 0.73Q 0.28843750000000057 0.73 -1.981562499999999 0.42Q-4.251562499999999 0.1 -6.521562500000002-0.93Q-8.7915625-1.95 -10.8615625-3.83Q-12.9415625-5.71 -14.5215625-8.79Q-16.111562499999998-11.87 -17.0615625-16.38Q-18.0215625-20.9 -18.0215625-27.15L-18.0215625-27.15L-18.0215625-56.69Q-18.0215625-62.99 -17.0415625-67.46Q-16.0615625-71.92 -14.4515625-74.98Q-12.8415625-78.03 -10.7415625-79.83Q-8.6415625-81.64 -6.391562499999999-82.59Q-4.151562500000001-83.54 -1.9315624999999983-83.84Q 0.28843750000000057-84.13  2.1984375000000007-84.13L 2.1984375000000007-84.13Q 7.178437500000001-84.13  10.518437499999997-82.74Q 13.868437499999999-81.35  15.8984375-78.93Q 17.918437500000003-76.51  18.778437500000003-73.29Q 19.628437499999997-70.07  19.628437499999997-66.46L 19.628437499999997-66.46Q 19.628437499999997-63.77  19.3584375-61.5Q 19.088437499999998-59.23  18.558437499999997-56.49L 18.558437499999997-56.49L 8.298437499999999-56.49L 8.298437499999999-60.74Q 8.298437499999999-67.63  6.788437500000001-71.04Q 5.278437499999999-74.46  2.3484374999999993-74.46L 2.3484374999999993-74.46Q 0.5884375000000013-74.46 -0.731562499999999-73.78Q-2.0515624999999993-73.1 -2.9315624999999983-71.46Q-3.811562500000001-69.82 -4.271562500000002-67.14Q-4.731562499999999-64.45 -4.731562499999999-60.45L-4.731562499999999-60.45L-4.731562499999999-22.36Q-4.731562499999999-18.46 -4.3715625-15.87Q-4.001562499999999-13.28 -3.1715625000000003-11.72Q-2.3415624999999984-10.16 -1.0015624999999986-9.5Q 0.3384375000000013-8.84  2.2484375000000014-8.84L 2.2484375000000014-8.84Q 3.4684375000000003-8.84  4.588437500000001-9.4Q 5.708437499999999-9.96  6.568437500000002-11.16Q 7.4184375-12.35  7.938437499999999-14.18Q 8.4484375-16.02  8.4484375-18.51L 8.4484375-18.51L 8.4484375-26.66L 20.018437499999997-26.66L 20.018437499999997-18.95Q 20.018437499999997-8.89  15.428437500000001-4.1Q 10.838437499999998 0.68  2.2484375000000014 0.73Z">
    </path>
    <path text="F" text-anchor="middle" font-size="100" letter-spacing="0" side="left" offset="0.5" dx="0" dy="0"
        space="preserve" href="" font-family="Fjalla One" font-scale="contain"
        transform="matrix(2.3948395252227783, -2.024003267288208, 1.4722524881362915, 1.741997480392456, 341.0050048828125, 360.66448974609375)"
        x="0" y="0" fill="#ffffff" data-fl-textpath="" id="_eh0dfhm8n_40"
        d="M-13.036015625000001 0L-13.036015625000001-83.4L 18.843984374999998-83.4L 18.843984374999998-73.44L-0.38601562499999886-73.44L-0.38601562499999886-48.49L 14.693984375-48.49L 14.693984375-38.53L-0.38601562499999886-38.53L-0.38601562499999886 0L-13.036015625000001 0Z">
    </path>
    <path text="L" text-anchor="middle" font-size="100" letter-spacing="0" side="left" offset="0.5" dx="0" dy="0"
        space="preserve" href="" font-family="Fjalla One" font-scale="contain"
        transform="matrix(2.767000436782837, 0, 0, 2.0127062797546387, 375.3539733886719, 361.3289794921875)" x="0"
        y="0" fill="#ffffff" data-fl-textpath="" id="_eh0dfhm8n_41"
        d="M-11.815312500000001 0L-11.815312500000001-83.4L 0.8346875000000011-83.4L 0.8346875000000011-9.96L 18.064687499999998-9.96L 18.064687499999998 0L-11.815312500000001 0Z">
    </path>
</svg>