<svg xmlns="http://www.w3.org/2000/svg" width="512" height="512" viewBox="0 0 512 512" data-svgdocument=""
    id="_EBv-IIU9XMi3eoa3dcCXi" class="fl-svgdocument" x="0" y="0" xmlns:xlink="http://www.w3.org/1999/xlink"
    style="overflow: hidden;">
    <rect data-fl-background="" fill="transparent" id="_eghihkfd3_106" width="512" height="512"></rect>
    <defs id="_jvahISvG3CmlhrYVMN4SE"
        transform="matrix(1.0990827083587646, 0, 0, 1.0990827083587646, -25.847888946533203, -16.64507484436035)">
    </defs>
    <g id="_XY1rD-LItJXKD1ijYelMh"
        transform="matrix(1.2395216226577759, 1.255292534828186, -1.255292534828186, 1.2395216226577759, 205.04354858398438, -335.9273681640625)"
        stroke="#000000" fill="#d3d3d3">
        <path id="_vX3GXCbl-MY4n_NIFeGVf"
            d="M88.372,38.521c0,0-49.688-4.452-88.372,49.863c38.685,54.314,88.372,49.863,88.372,49.863  s49.688,4.451,88.37-49.863C138.06,34.07,88.372,38.521,88.372,38.521z"
            fill="#d3d3d3"
            transform="matrix(0.6027166247367859, -0.6027166247367859, 0.6255265474319458, 0.6255265474319458, 149.96168518066406, 212.6459197998047)"
            stroke="#000000"></path>
        <path id="_t9DWjJwynYhwS1Syz8pZI" fill="#d3d3d3"
            d="M59.244,39.383c-0.001-0.001-0.001-0.002-0.002-0.003c-0.001-0.001-0.003-0.002-0.004-0.003l-3.313-3.314   c-0.912-0.912-2.39-0.912-3.303,0c-0.912,0.912-0.912,2.391,0,3.303l1.666,1.666l-1.673,1.673l-1.666-1.666   c-0.912-0.912-2.39-0.912-3.302,0c-0.912,0.913-0.912,2.391,0,3.303l1.666,1.666l-1.674,1.673l-1.666-1.666   c-0.912-0.913-2.391-0.913-3.303,0c-0.912,0.912-0.912,2.391,0,3.302l1.666,1.666l-1.673,1.674l-1.666-1.666   c-0.912-0.912-2.39-0.912-3.302,0c-0.913,0.912-0.913,2.391,0,3.303l1.666,1.666l-1.666,1.666   c-0.003,0.002-0.005,0.006-0.007,0.008l-1.668-1.668c-0.912-0.912-2.39-0.912-3.302,0s-0.912,2.391,0,3.303l6.634,6.635   c0.456,0.457,1.054,0.685,1.651,0.685s1.195-0.228,1.651-0.685c0.912-0.912,0.912-2.391,0-3.303l-1.666-1.666   c0.002-0.002,0.006-0.004,0.008-0.007l1.666-1.666l1.666,1.666c0.456,0.456,1.054,0.685,1.651,0.685s1.195-0.229,1.651-0.685   c0.912-0.911,0.912-2.391,0-3.302l-1.666-1.666l1.673-1.674l1.666,1.666c0.456,0.455,1.054,0.684,1.65,0.684   c0.598,0,1.195-0.229,1.651-0.684c0.912-0.912,0.912-2.391,0-3.303l-1.666-1.666l1.673-1.673l1.666,1.666   c0.456,0.456,1.054,0.685,1.651,0.685s1.195-0.229,1.651-0.684c0.912-0.913,0.912-2.391,0-3.303l-1.666-1.666l1.674-1.673   L59.256,46c0.456,0.457,1.054,0.685,1.65,0.685c0.598,0,1.195-0.228,1.651-0.684c0.912-0.913,0.912-2.391,0-3.303L59.244,39.383z"
            transform="matrix(1.6760609149932861, 0, 0, 1.6760609149932861, 178.33761596679688, 129.69381713867188)"
            stroke="#000000"></path>
        <path id="_HiD1OcWISKd8IjBbJZJ7I" fill="#d3d3d3"
            d="M85.038,28.357c-0.183-2.136-0.507-4.311-0.962-6.465l-0.161-0.49c-0.685-1.491-1.604-2.822-2.739-3.958   c-1.137-1.134-2.468-2.055-3.957-2.736l-0.487-0.161c-2.146-0.455-4.323-0.779-6.469-0.962c-1.491-0.127-3.007-0.192-4.504-0.192   c-13.117,0-25.526,4.779-35.207,13.504l-0.055-0.06l-1.719,1.719l-1.736,1.648l0.076,0.101   C17.23,41.136,12.304,55.592,13.558,70.291c0.187,2.166,0.51,4.342,0.963,6.469l0.161,0.486c0.679,1.484,1.6,2.816,2.738,3.957   c1.14,1.139,2.472,2.061,3.961,2.738l0.484,0.16c2.15,0.457,4.326,0.779,6.465,0.963c1.492,0.127,3.008,0.191,4.507,0.191   c0,0,0.001,0,0.003,0c13.923,0,27.049-5.383,36.902-15.104c0,0,0.14-0.131,0.188-0.178l1.582-1.59l-0.033-0.043   C81.366,57.512,86.292,43.056,85.038,28.357z M66.746,66.546l-0.227,0.227c-9.031,8.907-20.994,13.813-33.683,13.813   c-1.367,0-2.749-0.059-4.109-0.176c-1.861-0.158-3.754-0.436-5.631-0.822c-0.891-0.436-1.688-1.002-2.373-1.686   c-0.687-0.689-1.254-1.486-1.69-2.377c-0.384-1.855-0.66-3.748-0.82-5.632c-1.196-14.017,3.774-27.79,13.637-37.791l0.227-0.226   c9.031-8.907,20.993-13.813,33.683-13.813c1.365,0,2.747,0.059,4.107,0.175c1.865,0.16,3.76,0.437,5.633,0.822   c0.892,0.438,1.691,1.005,2.374,1.687c0.683,0.684,1.25,1.483,1.689,2.377c0.386,1.88,0.663,3.772,0.82,5.63   C81.58,42.771,76.608,56.545,66.746,66.546z"
            transform="matrix(1.6760609149932861, 0, 0, 1.6760609149932861, 176.10520935058594, 131.34617614746094)"
            stroke="#000000"></path>
    </g>
    <path id="_d4Y7HJ7RYfD-1GqNUHvPM" fill="#000000"
        transform="matrix(0.6592115163803101, 0, 0, 0.19366374611854553, 254.67103576660156, 307.6033020019531)"
        text="CFL" text-anchor="middle" font-size="100" letter-spacing="0" side="left" offset="0.5" dx="0" dy="0"
        space="preserve" href="" font-family="Fjalla One" font-scale="contain" x="0" y="0" data-fl-textpath=""
        d="M-36.862890625 0.73L-36.862890625 0.73Q-38.822890625 0.73 -41.092890624999995 0.42Q-43.362890625 0.1 -45.632890625-0.93Q-47.902890625-1.95 -49.972890625-3.83Q-52.052890625-5.71 -53.632890625-8.79Q-55.222890625-11.87 -56.172890625-16.38Q-57.132890625-20.9 -57.132890625-27.15L-57.132890625-27.15L-57.132890625-56.69Q-57.132890625-62.99 -56.152890625-67.46Q-55.172890625-71.92 -53.562890625-74.98Q-51.952890625-78.03 -49.852890625-79.83Q-47.752890625-81.64 -45.502890625-82.59Q-43.262890625-83.54 -41.042890625-83.84Q-38.822890625-84.13 -36.912890625-84.13L-36.912890625-84.13Q-31.932890625-84.13 -28.592890625000003-82.74Q-25.242890625-81.35 -23.212890625-78.93Q-21.192890624999997-76.51 -20.332890624999997-73.29Q-19.482890625000003-70.07 -19.482890625000003-66.46L-19.482890625000003-66.46Q-19.482890625000003-63.77 -19.752890625-61.5Q-20.022890625000002-59.23 -20.552890625000003-56.49L-20.552890625000003-56.49L-30.812890625-56.49L-30.812890625-60.74Q-30.812890625-67.63 -32.322890625-71.04Q-33.832890625000005-74.46 -36.762890625-74.46L-36.762890625-74.46Q-38.522890625-74.46 -39.842890624999995-73.78Q-41.162890625-73.1 -42.042890625-71.46Q-42.922890625-69.82 -43.382890625-67.14Q-43.842890624999995-64.45 -43.842890624999995-60.45L-43.842890624999995-60.45L-43.842890624999995-22.36Q-43.842890624999995-18.46 -43.482890624999996-15.87Q-43.112890625-13.28 -42.282890625-11.72Q-41.452890624999995-10.16 -40.112890625-9.5Q-38.772890625-8.84 -36.862890625-8.84L-36.862890625-8.84Q-35.642890625-8.84 -34.522890625-9.4Q-33.402890625-9.96 -32.542890625-11.16Q-31.692890625-12.35 -31.172890625-14.18Q-30.662890625-16.02 -30.662890625-18.51L-30.662890625-18.51L-30.662890625-26.66L-19.092890625000003-26.66L-19.092890625000003-18.95Q-19.092890625000003-8.89 -23.682890625-4.1Q-28.272890625000002 0.68 -36.862890625 0.73ZM-9.129765625000001 0L-9.129765625000001-83.4L 22.750234374999998-83.4L 22.750234374999998-73.44L 3.520234375000001-73.44L 3.520234375000001-48.49L 18.600234375-48.49L 18.600234375-38.53L 3.520234375000001-38.53L 3.520234375000001 0L-9.129765625000001 0ZM 31.202265625 0L 31.202265625-83.4L 43.852265625-83.4L 43.852265625-9.96L 61.082265625-9.96L 61.082265625 0L 31.202265625 0Z">
    </path>
    <g id="_eghihkfd3_4"
        transform="matrix(0.2533212900161743, 0.1471608579158783, -0.1471608579158783, 0.2533212900161743, 302.8284606933594, 276.54913330078125)"
        fill="#000000" stroke="#ffffff"><svg id="_eghihkfd3_5" xmlns="http://www.w3.org/2000/svg"
            xmlns:xlink="http://www.w3.org/1999/xlink" version="1.1" x="0px" y="0px" viewBox="0 0 100 100"
            enable-background="new 0 0 100 100" width="100" height="100">
            <g id="_eghihkfd3_6" fill="#000000" stroke="#ffffff">
                <path id="_eghihkfd3_7"
                    d="M91.7,27.3C91.7,27.3,91.6,27.3,91.7,27.3C91.6,27.3,91.6,27.3,91.7,27.3l-0.1,0c-1,0.2-7.7,2.5-10.3,3.3l0.5-3.6   c0,0-5.2,2.3-8.7,4.9c-0.5,0.4-1,0.1-0.9-0.4l-0.8-2.9c0,0-0.8-1.7-6,9.5c-0.6,1.3-1.5,2.5-2.7,3.4c-0.1,0.1-0.3,0.2-0.4,0.3   c-1.1,0.7-2.5,0.1-2.7-1.1c-0.1-0.3-0.1-0.6-0.1-1c-0.1-1.5,0.3-3,1.1-4.2c6.7-11.1,5.2-16.8,5.2-16.8l-4.4,2.5   c-0.4,0.4-1.1,0.2-1.1-0.4c-0.2-4.4-1.6-10.2-1.6-10.2l-3.6,3C53.8,11.2,50.5,6,50,5.1V5c0,0,0,0,0,0.1c0,0,0-0.1,0-0.1v0.1   c-0.6,0.9-3.8,6.1-5.1,8.5l-3.6-3c0,0-1.5,6.3-1.6,10.7c0,0.4-0.5,0.6-0.8,0.3l-5.4-3.1c0,0-1.6,6.8,5.6,16.9   c1.1,1.5,1.6,3.4,1.3,5.2c0,0,0,0,0,0c-0.2,1.3-1.7,1.9-2.8,1.2c-0.1-0.1-0.2-0.1-0.2-0.2c-1.2-0.9-2.1-2.1-2.7-3.4   c-5.2-11.2-6-9.5-6-9.5l-0.8,2.9c0.1,0.5-0.4,0.8-0.9,0.4c-3.4-2.7-8.7-4.9-8.7-4.9l0.5,3.6c-2.5-0.8-9.3-3.1-10.3-3.3l-0.1-0.1   c0,0,0,0,0,0.1c0,0-0.1,0-0.1,0l0.1,0.1c0.4,0.9,3.8,7.3,5.1,9.7l-4.1,0.4c0,0,4.1,5,7.5,7.8c0.3,0.3,0.2,0.7-0.2,0.6l-4.1,1.1   c0,0-0.6,2.7,10.9,4.6c1.7,0.3,3.4,1.2,4.7,2.5c0,0,0,0,0,0c1,1,0.5,2.7-0.9,3c-1.8,0.5-3.9,1-6,1.3c0,0-4,1.1-4.5,1.1   c0,0,4.6,3.5,6.6,4.4c2.5,1.2,7.2,2.5,10.9,1.4c0,0,3.1,0.2,0.8,1.6c-2.3,1.4-2.3,1.4-2.3,1.4s8.3,1.3,13.2-4.7   c0,0,1.1-2.2,2.6-3.1c-0.1,0-0.2,0-0.3,0c-0.4,0.1-0.9,0.1-1.4,0.1c-0.5,0-1,0.1-1.6,0.1c-0.6,0-1.2,0.1-1.8,0.1   c-1.2,0-2.6,0-3.9,0c-5.3,0-10.6-0.4-10.6-0.4s5.3,0.2,10.6,0c1.3,0,2.6-0.1,3.9-0.2c0.6,0,1.2-0.1,1.8-0.1c0.6,0,1.1-0.1,1.6-0.2   c0.5,0,0.9-0.1,1.3-0.2c0.1,0,0.2,0,0.3,0c0,0,0,0,0,0c-0.4-0.2-1-0.6-1.6-0.9c-0.6-0.4-1.2-0.8-2-1.3c-0.7-0.5-1.5-1.1-2.3-1.6   c-0.8-0.6-1.6-1.2-2.5-1.9c-0.8-0.7-1.7-1.4-2.6-2.1c-0.9-0.7-1.8-1.4-2.6-2.2C28,44,21.2,37.8,21.2,37.8s6.9,6.1,14,11.8   c0.9,0.7,1.8,1.4,2.7,2.1c0.9,0.7,1.8,1.3,2.6,2c0.9,0.6,1.7,1.3,2.5,1.8c0.8,0.6,1.6,1.1,2.3,1.6c0.7,0.5,1.4,0.9,2,1.2   c0.6,0.3,1.1,0.6,1.6,0.9c0.4,0.2,0.7,0.3,0.9,0.4l0.4-38.9l0.4,38.8c0,0,0,0,0,0l0,0c0,0,0,0,0.1,0c0.2-0.1,0.4-0.2,0.7-0.3   c0.4-0.2,1-0.5,1.6-0.9c0.6-0.3,1.2-0.8,2-1.2c0.7-0.5,1.5-1,2.3-1.6c0.8-0.6,1.6-1.2,2.5-1.8c0.9-0.6,1.7-1.3,2.6-2   c0.9-0.7,1.8-1.4,2.7-2.1c7.2-5.7,14-11.8,14-11.8S72.3,44,65.3,49.9c-0.9,0.7-1.8,1.5-2.6,2.2c-0.9,0.7-1.8,1.4-2.6,2.1   c-0.9,0.7-1.7,1.3-2.5,1.9c-0.8,0.6-1.5,1.1-2.3,1.6c-0.7,0.5-1.4,0.9-2,1.3c-0.5,0.3-0.9,0.6-1.3,0.8c0.2,0,0.3,0,0.5,0.1   c0.4,0.1,0.8,0.1,1.3,0.2c0.5,0.1,1,0.1,1.6,0.2c0.6,0,1.2,0.1,1.8,0.1c1.2,0.1,2.6,0.1,3.9,0.2c5.3,0.1,10.6,0,10.6,0   s-5.3,0.3-10.6,0.4c-1.3,0-2.6,0-3.9,0c-0.6,0-1.2,0-1.8-0.1c-0.6,0-1.1-0.1-1.6-0.1c-0.5,0-1-0.1-1.4-0.1c-0.4-0.1-0.8-0.1-1-0.1   c-0.1,0-0.2,0-0.3-0.1c0,0-0.1,0-0.1,0c2,0.5,4.2,3.4,4.2,3.4c4.9,6,13.2,4.7,13.2,4.7s0,0-2.3-1.4c-2.3-1.4,0.8-1.6,0.8-1.6   c3.7,1.1,9.3-0.8,11.7-1.9c2-0.9,5.7-3.8,5.7-3.8c-0.5,0-4.5-1.1-4.5-1.1c-2.7-0.4-5.4-1.1-7.4-1.7c-1.1-0.3-1.5-1.8-0.7-2.6   c0,0,0,0,0,0c1.3-1.3,3-2.2,4.7-2.5c11.5-1.9,10.9-4.6,10.9-4.6l-4.1-1.1c-0.4,0-0.5-0.4-0.2-0.6c3.4-2.8,7.5-7.8,7.5-7.8l-4.1-0.4   c1.3-2.3,4.7-8.7,5.1-9.7L91.7,27.3z"
                    fill="#000000" stroke="#ffffff"></path>
                <path id="_eghihkfd3_8"
                    d="M50.6,79.3c-0.5-13.2-0.1-18.9-0.1-18.9h-0.9c0,0-1.3,22.4,0.9,34.2c0,0.2,0.3,0.4,0.5,0.4c0.4,0,1.1-0.1,1.5-0.3   c0.3-0.1,0.4-0.4,0.3-0.7C52.3,93.1,51,89.7,50.6,79.3z"
                    fill="#000000" stroke="#ffffff"></path>
            </g>
        </svg></g>
    <g id="_eghihkfd3_9"
        transform="matrix(0.2542223036289215, -0.14559894800186157, 0.14559894800186157, 0.2542223036289215, 182.83155822753906, 291.1420593261719)"
        fill="#000000" stroke="#ffffff"><svg id="_eghihkfd3_10" xmlns="http://www.w3.org/2000/svg"
            xmlns:xlink="http://www.w3.org/1999/xlink" version="1.1" x="0px" y="0px" viewBox="0 0 100 100"
            enable-background="new 0 0 100 100" width="100" height="100">
            <g id="_eghihkfd3_11" fill="#000000" stroke="#ffffff">
                <path id="_eghihkfd3_12"
                    d="M91.7,27.3C91.7,27.3,91.6,27.3,91.7,27.3C91.6,27.3,91.6,27.3,91.7,27.3l-0.1,0c-1,0.2-7.7,2.5-10.3,3.3l0.5-3.6   c0,0-5.2,2.3-8.7,4.9c-0.5,0.4-1,0.1-0.9-0.4l-0.8-2.9c0,0-0.8-1.7-6,9.5c-0.6,1.3-1.5,2.5-2.7,3.4c-0.1,0.1-0.3,0.2-0.4,0.3   c-1.1,0.7-2.5,0.1-2.7-1.1c-0.1-0.3-0.1-0.6-0.1-1c-0.1-1.5,0.3-3,1.1-4.2c6.7-11.1,5.2-16.8,5.2-16.8l-4.4,2.5   c-0.4,0.4-1.1,0.2-1.1-0.4c-0.2-4.4-1.6-10.2-1.6-10.2l-3.6,3C53.8,11.2,50.5,6,50,5.1V5c0,0,0,0,0,0.1c0,0,0-0.1,0-0.1v0.1   c-0.6,0.9-3.8,6.1-5.1,8.5l-3.6-3c0,0-1.5,6.3-1.6,10.7c0,0.4-0.5,0.6-0.8,0.3l-5.4-3.1c0,0-1.6,6.8,5.6,16.9   c1.1,1.5,1.6,3.4,1.3,5.2c0,0,0,0,0,0c-0.2,1.3-1.7,1.9-2.8,1.2c-0.1-0.1-0.2-0.1-0.2-0.2c-1.2-0.9-2.1-2.1-2.7-3.4   c-5.2-11.2-6-9.5-6-9.5l-0.8,2.9c0.1,0.5-0.4,0.8-0.9,0.4c-3.4-2.7-8.7-4.9-8.7-4.9l0.5,3.6c-2.5-0.8-9.3-3.1-10.3-3.3l-0.1-0.1   c0,0,0,0,0,0.1c0,0-0.1,0-0.1,0l0.1,0.1c0.4,0.9,3.8,7.3,5.1,9.7l-4.1,0.4c0,0,4.1,5,7.5,7.8c0.3,0.3,0.2,0.7-0.2,0.6l-4.1,1.1   c0,0-0.6,2.7,10.9,4.6c1.7,0.3,3.4,1.2,4.7,2.5c0,0,0,0,0,0c1,1,0.5,2.7-0.9,3c-1.8,0.5-3.9,1-6,1.3c0,0-4,1.1-4.5,1.1   c0,0,4.6,3.5,6.6,4.4c2.5,1.2,7.2,2.5,10.9,1.4c0,0,3.1,0.2,0.8,1.6c-2.3,1.4-2.3,1.4-2.3,1.4s8.3,1.3,13.2-4.7   c0,0,1.1-2.2,2.6-3.1c-0.1,0-0.2,0-0.3,0c-0.4,0.1-0.9,0.1-1.4,0.1c-0.5,0-1,0.1-1.6,0.1c-0.6,0-1.2,0.1-1.8,0.1   c-1.2,0-2.6,0-3.9,0c-5.3,0-10.6-0.4-10.6-0.4s5.3,0.2,10.6,0c1.3,0,2.6-0.1,3.9-0.2c0.6,0,1.2-0.1,1.8-0.1c0.6,0,1.1-0.1,1.6-0.2   c0.5,0,0.9-0.1,1.3-0.2c0.1,0,0.2,0,0.3,0c0,0,0,0,0,0c-0.4-0.2-1-0.6-1.6-0.9c-0.6-0.4-1.2-0.8-2-1.3c-0.7-0.5-1.5-1.1-2.3-1.6   c-0.8-0.6-1.6-1.2-2.5-1.9c-0.8-0.7-1.7-1.4-2.6-2.1c-0.9-0.7-1.8-1.4-2.6-2.2C28,44,21.2,37.8,21.2,37.8s6.9,6.1,14,11.8   c0.9,0.7,1.8,1.4,2.7,2.1c0.9,0.7,1.8,1.3,2.6,2c0.9,0.6,1.7,1.3,2.5,1.8c0.8,0.6,1.6,1.1,2.3,1.6c0.7,0.5,1.4,0.9,2,1.2   c0.6,0.3,1.1,0.6,1.6,0.9c0.4,0.2,0.7,0.3,0.9,0.4l0.4-38.9l0.4,38.8c0,0,0,0,0,0l0,0c0,0,0,0,0.1,0c0.2-0.1,0.4-0.2,0.7-0.3   c0.4-0.2,1-0.5,1.6-0.9c0.6-0.3,1.2-0.8,2-1.2c0.7-0.5,1.5-1,2.3-1.6c0.8-0.6,1.6-1.2,2.5-1.8c0.9-0.6,1.7-1.3,2.6-2   c0.9-0.7,1.8-1.4,2.7-2.1c7.2-5.7,14-11.8,14-11.8S72.3,44,65.3,49.9c-0.9,0.7-1.8,1.5-2.6,2.2c-0.9,0.7-1.8,1.4-2.6,2.1   c-0.9,0.7-1.7,1.3-2.5,1.9c-0.8,0.6-1.5,1.1-2.3,1.6c-0.7,0.5-1.4,0.9-2,1.3c-0.5,0.3-0.9,0.6-1.3,0.8c0.2,0,0.3,0,0.5,0.1   c0.4,0.1,0.8,0.1,1.3,0.2c0.5,0.1,1,0.1,1.6,0.2c0.6,0,1.2,0.1,1.8,0.1c1.2,0.1,2.6,0.1,3.9,0.2c5.3,0.1,10.6,0,10.6,0   s-5.3,0.3-10.6,0.4c-1.3,0-2.6,0-3.9,0c-0.6,0-1.2,0-1.8-0.1c-0.6,0-1.1-0.1-1.6-0.1c-0.5,0-1-0.1-1.4-0.1c-0.4-0.1-0.8-0.1-1-0.1   c-0.1,0-0.2,0-0.3-0.1c0,0-0.1,0-0.1,0c2,0.5,4.2,3.4,4.2,3.4c4.9,6,13.2,4.7,13.2,4.7s0,0-2.3-1.4c-2.3-1.4,0.8-1.6,0.8-1.6   c3.7,1.1,9.3-0.8,11.7-1.9c2-0.9,5.7-3.8,5.7-3.8c-0.5,0-4.5-1.1-4.5-1.1c-2.7-0.4-5.4-1.1-7.4-1.7c-1.1-0.3-1.5-1.8-0.7-2.6   c0,0,0,0,0,0c1.3-1.3,3-2.2,4.7-2.5c11.5-1.9,10.9-4.6,10.9-4.6l-4.1-1.1c-0.4,0-0.5-0.4-0.2-0.6c3.4-2.8,7.5-7.8,7.5-7.8l-4.1-0.4   c1.3-2.3,4.7-8.7,5.1-9.7L91.7,27.3z"
                    fill="#000000" stroke="#ffffff"></path>
                <path id="_eghihkfd3_13"
                    d="M50.6,79.3c-0.5-13.2-0.1-18.9-0.1-18.9h-0.9c0,0-1.3,22.4,0.9,34.2c0,0.2,0.3,0.4,0.5,0.4c0.4,0,1.1-0.1,1.5-0.3   c0.3-0.1,0.4-0.4,0.3-0.7C52.3,93.1,51,89.7,50.6,79.3z"
                    fill="#000000" stroke="#ffffff"></path>
            </g>
        </svg></g>
</svg>